<svg width="48" height="50" viewBox="0 0 48 50" fill="none" xmlns="http://www.w3.org/2000/svg">
<path fill-rule="evenodd" clip-rule="evenodd" d="M10.7801 21.0934L22.1442 9.25589L23.5583 10.729L12.1943 22.5666L10.7801 21.0934Z" fill="#999999"/>
<path fill-rule="evenodd" clip-rule="evenodd" d="M14.5511 25.0214L25.9152 13.1839L27.3293 14.657L15.9653 26.4945L14.5511 25.0214Z" fill="#999999"/>
<path fill-rule="evenodd" clip-rule="evenodd" d="M22.5651 33.3696L33.9292 21.532L35.3434 23.0051L23.9793 34.8427L22.5651 33.3696Z" fill="#999999"/>
<path fill-rule="evenodd" clip-rule="evenodd" d="M26.3361 37.2975L37.7002 25.46L39.1144 26.9331L27.7503 38.7707L26.3361 37.2975Z" fill="#999999"/>
<path fill-rule="evenodd" clip-rule="evenodd" d="M26.3359 37.298C22.4133 41.3841 16.0676 41.3988 12.1624 37.3309C8.25722 33.263 8.27136 26.6529 12.194 22.5669L10.7798 21.0938C6.07264 25.997 6.05568 33.9291 10.7419 38.8106C15.4281 43.6921 23.043 43.6744 27.7501 38.7712L26.3359 37.298Z" fill="#999999"/>
<path fill-rule="evenodd" clip-rule="evenodd" d="M33.9292 21.5318L35.3434 23.0049C39.0045 19.1913 39.0177 13.0218 35.3729 9.22514C31.728 5.42843 25.8054 5.44217 22.1443 9.25583L23.5585 10.7289C26.4351 7.7325 31.0886 7.7217 33.9524 10.7048C36.8162 13.688 36.8058 18.5354 33.9292 21.5318Z" fill="#999999"/>
<path fill-rule="evenodd" clip-rule="evenodd" d="M14.5514 25.0227C11.9363 27.7467 11.9269 32.1535 14.5303 34.8654C17.1338 37.5773 21.3643 37.5675 23.9793 34.8435L22.5652 33.3704C20.7346 35.2772 17.7733 35.2841 15.9509 33.3857C14.1284 31.4874 14.135 28.4027 15.9656 26.4958L14.5514 25.0227Z" fill="#999999"/>
</svg>
